<?xml version="1.0" encoding="UTF-8"?>
<svg width="200" height="50" viewBox="0 0 200 50" fill="none" xmlns="http://www.w3.org/2000/svg">
  <!-- Leaf symbol -->
  <path d="M15 10C15 10 5 15 5 25C5 35 15 40 25 35C35 30 40 15 40 15C40 15 30 20 25 25C20 30 15 30 15 25C15 20 15 10 15 10Z" fill="#275136"/>
  
  <!-- House roof -->
  <path d="M40 25L55 15L70 25H40Z" fill="#275136"/>
  
  <!-- House body -->
  <rect x="45" y="25" width="20" height="15" fill="#275136"/>
  
  <!-- Text: EKO-MĀJA -->
  <path d="M85 18H95V20H87V24H94V26H87V30H95V32H85V18Z" fill="#275136"/>
  <path d="M100 18H102V25L108 18H111L105 24.5L111 32H108L104 26.5L102 28.5V32H100V18Z" fill="#275136"/>
  <path d="M115 18H125C127 18 129 19.5 129 22C129 24 127.5 25.5 125.5 26L129 32H126.5L123 26H117V32H115V18ZM117 20V24H124C125.5 24 127 23 127 22C127 21 125.5 20 124 20H117Z" fill="#275136"/>
  <path d="M135 25V32H133V18H135V18.5C136 18 137 18 138 18C142 18 144 20.5 144 25C144 29.5 142 32 138 32C137 32 136 31.5 135 31V25ZM138 30C140.5 30 142 28 142 25C142 22 140.5 20 138 20C135.5 20 135 21.5 135 23V27C135 28.5 135.5 30 138 30Z" fill="#275136"/>
  <path d="M150 32H148V18H150V32Z" fill="#275136"/>
  <path d="M155 25C155 20.5 157.5 18 161.5 18C165.5 18 168 20.5 168 25C168 29.5 165.5 32 161.5 32C157.5 32 155 29.5 155 25ZM166 25C166 21.5 164 20 161.5 20C159 20 157 21.5 157 25C157 28.5 159 30 161.5 30C164 30 166 28.5 166 25Z" fill="#275136"/>
  <path d="M175 20V32H173V20H170V18H178V20H175Z" fill="#275136"/>
  <path d="M183 26L179 18H181L184 24L187 18H189L185 26V32H183V26Z" fill="#275136"/>
  <path d="M195 32L190 18H192L196 29L200 18H202L197 32H195Z" fill="#275136"/>
</svg>